<svg width="271" height="152" viewBox="0 0 271 152" fill="none" xmlns="http://www.w3.org/2000/svg">
<path d="M104.509 84.4182L106.775 92.3533L102.89 90.1402L104.509 84.4182ZM91.3086 77.2152C91.3086 76.0877 90.6354 75.0443 89.3316 74.2953L87.2523 73.1089V76.7693L89.2464 77.9137C90.5672 78.6626 91.3086 78.4943 91.3086 77.2152ZM87.2523 84.637L89.877 86.1348C91.2064 86.8922 91.9733 86.6481 91.9733 85.3691C91.9733 84.2415 91.3001 83.114 89.8429 82.2725L87.2608 80.7999V84.637H87.2523ZM90.482 66.4949L83 62.2707L129.009 36L136.67 40.3672C138.519 41.4359 138.331 43.0431 136.499 45.0711C135.246 46.4595 133.167 48.0415 129.878 49.9095C124.552 52.9304 120.427 54.1589 117.342 54.4198C117.283 56.4982 115.263 58.9469 108.88 62.5652C100.989 67.0419 93.993 68.5229 90.482 66.4949ZM114.701 48.7567L117.266 50.2377C118.51 50.9529 120.512 50.6079 123.342 49.0007C125.838 47.5786 126.657 46.4006 125.438 45.6937L122.796 44.1623L114.701 48.7567ZM97.2653 58.644L100.418 60.4616C101.654 61.1768 103.887 60.7308 106.716 59.1236C109.213 57.71 110.235 56.4057 108.863 55.6231L105.753 53.8224L97.2653 58.644ZM129.009 92.2692L145.566 82.8279V88.0871L140.487 90.9817V106.599L135.63 109.359V93.7586L129.009 97.5115V117L83.0085 90.7798V87.0016L90.3457 91.1079C94.1037 93.2537 96.3279 92.3028 96.3279 88.735C96.3279 85.8572 95.1178 83.7282 93.2004 81.8097C94.598 81.8097 95.6291 80.9682 95.6291 78.5616C95.6291 77.0806 95.2456 75.7595 94.615 74.5646C93.6947 72.8228 92.2971 71.367 90.3201 70.2395L83 66.0405V62.2707L105.344 74.9012C101.151 72.1833 107.892 64.6857 120.572 57.4996C133.295 50.2882 147.109 46.3333 151.651 48.9502C156.184 51.5756 149.247 59.3676 136.405 66.6464C123.904 73.7316 110.525 77.4845 105.761 75.1284L113.056 79.2516L141.68 68.8258L159.363 53.3091L164.587 56.2879L154.326 65.056L170.322 59.5612L175 62.2707L147.671 72.1412L129 88.2638V92.2692H129.009ZM116.55 68.8679C118.8 70.1637 125.728 67.9422 132.247 64.2482C138.638 60.6214 142.677 56.5824 140.428 55.2781C138.203 53.9907 131.267 56.2205 124.748 59.9146C118.356 63.5329 114.317 67.5804 116.55 68.8679ZM118.22 82.1715L123.947 85.4112L135.025 75.9026L118.22 82.1715ZM114.019 104.605L106.997 79.7228L102.625 77.2237L96.2256 94.457L100.827 97.0824L101.688 94.0026L108.224 97.7219L109.358 101.946L114.019 104.605ZM129 92.2692L112.442 82.8279V88.0871L117.521 90.9817V106.599L122.379 109.359V93.7586L128.991 97.5115L129 92.2692ZM152.392 78.9234L147.339 81.8097V102.678L159.857 95.5425V90.5105L152.392 94.7599V78.9234ZM161.621 94.5243L174.991 86.9006V84.3173V81.8433L165.89 87.0352V83.6609L174.991 78.469V73.9588L165.899 79.1675V76.0793L175 70.8874V66.0489L161.621 73.6727V94.5243Z" fill="#565656"/>
</svg>
